<!-- icon666.com - MILLIONS vector ICONS FREE --><svg version="1.1" id="Capa_1" xmlns="http://www.w3.org/2000/svg" xmlns:xlink="http://www.w3.org/1999/xlink" x="0px" y="0px" viewBox="0 0 512.001 512.001" style="enable-background:new 0 0 512.001 512.001;" xml:space="preserve"><circle style="fill: rgb(246, 207, 0);" cx="256" cy="162.861" r="120" fill="#FFD44A"></circle><circle style="fill: rgb(255, 219, 102);" cx="256" cy="162.861" r="80" fill="#FFE89C"></circle><g><path style="fill: rgb(173, 0, 0);" d="M81.112,46.507c0-14.957-7.227-28.225-18.378-36.506C51.583,18.282,44.356,31.55,44.356,46.507 s7.227,28.225,18.378,36.506C73.885,74.732,81.112,61.464,81.112,46.507z" fill="#BDF485"></path><path style="fill: rgb(173, 0, 0);" d="M58.694,89.964c-8.69-15.052-23.672-24.205-39.706-26.06c-6.411,14.813-5.975,32.364,2.715,47.416 s23.672,24.205,39.706,26.06C67.82,122.568,67.384,105.016,58.694,89.964z" fill="#BDF485"></path><path style="fill: rgb(173, 0, 0);" d="M60.086,159.138c-13.479-13.479-31.949-18.923-49.461-16.336 c-2.587,17.512,2.857,35.982,16.336,49.461s31.949,18.923,49.461,16.336C79.009,191.087,73.565,172.617,60.086,159.138z" fill="#BDF485"></path><path style="fill: rgb(173, 0, 0);" d="M93.735,230.617c-18.219-12.757-40.545-15.271-60.143-8.75 c0.576,20.647,10.574,40.766,28.793,53.524s40.545,15.271,60.143,8.75C121.952,263.494,111.955,243.374,93.735,230.617z" fill="#BDF485"></path><path style="fill: rgb(173, 0, 0);" d="M430.888,46.507c0-14.957,7.227-28.225,18.378-36.506c11.151,8.281,18.378,21.549,18.378,36.506 s-7.227,28.225-18.378,36.506C438.115,74.732,430.888,61.464,430.888,46.507z" fill="#BDF485"></path><path style="fill: rgb(173, 0, 0);" d="M453.306,89.964c8.69-15.052,23.672-24.205,39.706-26.06c6.411,14.813,5.975,32.364-2.715,47.416 s-23.672,24.205-39.706,26.06C444.18,122.568,444.616,105.016,453.306,89.964z" fill="#BDF485"></path><path style="fill: rgb(173, 0, 0);" d="M451.914,159.138c13.479-13.479,31.949-18.923,49.461-16.336 c2.587,17.512-2.857,35.982-16.336,49.461s-31.949,18.923-49.461,16.336C432.991,191.087,438.435,172.617,451.914,159.138z" fill="#BDF485"></path><path style="fill: rgb(173, 0, 0);" d="M418.265,230.617c18.219-12.757,40.545-15.271,60.143-8.75 c-0.576,20.647-10.574,40.766-28.793,53.524c-18.219,12.757-40.545,15.271-60.143,8.75 C390.048,263.494,400.045,243.374,418.265,230.617z" fill="#BDF485"></path></g><rect x="174" y="376.001" style="fill: rgb(255, 219, 102);" width="164" height="126" fill="#FFE89C"></rect><path style="fill: rgb(148, 71, 0);" d="M366,376.001H146c-13.255,0-24-10.745-24-24l0,0c0-13.255,10.745-24,24-24h220 c13.255,0,24,10.745,24,24l0,0C390,365.256,379.255,376.001,366,376.001z" fill="#FFDC69"></path><path d="M366,318.001H146c-18.748,0-34,15.252-34,34s15.252,34,34,34h18v116c0,5.522,4.477,10,10,10h164c5.523,0,10-4.478,10-10 v-116h18c18.748,0,34-15.252,34-34S384.748,318.001,366,318.001z M328,492.001H184v-106h144V492.001z M366,366.001h-28H174h-28 c-7.72,0-14-6.28-14-14s6.28-14,14-14h220c7.72,0,14,6.28,14,14S373.72,366.001,366,366.001z" fill="#000000"></path><path d="M256,292.86c71.682,0,130-58.317,130-130s-58.318-130-130-130s-130,58.317-130,130S184.318,292.86,256,292.86z M256,52.86 c60.654,0,110,49.346,110,110s-49.346,110-110,110s-110-49.346-110-110S195.346,52.86,256,52.86z" fill="#000000"></path><path d="M304.667,109.001c2.519,0,5.04-0.946,6.984-2.845c3.952-3.857,4.028-10.188,0.17-14.141 c-0.057-0.059-0.175-0.176-0.233-0.233c-3.954-3.855-10.285-3.777-14.141,0.175c-3.838,3.934-3.78,10.222,0.116,14.084 C299.518,108.012,302.091,109.001,304.667,109.001z" fill="#000000"></path><path d="M326,162.86c0,38.598-31.402,70-70,70c-5.523,0-10,4.478-10,10s4.477,10,10,10c49.626,0,90-40.374,90-90 c0-14.45-3.509-28.819-10.149-41.555c-2.553-4.897-8.593-6.796-13.49-4.244c-4.897,2.553-6.797,8.593-4.244,13.49 C323.348,140.585,326,151.455,326,162.86z" fill="#000000"></path><path d="M214.019,219.877c-3.905-3.905-10.21-3.878-14.116,0.026c-3.905,3.905-3.878,10.264,0.026,14.169 c1.953,1.952,4.512,2.929,7.071,2.929s5.119-0.977,7.071-2.929c3.905-3.905,3.905-10.237,0-14.143L214.019,219.877z" fill="#000000"></path><path d="M187.292,205.065c5.026-2.288,7.247-8.217,4.959-13.244c-4.147-9.113-6.25-18.856-6.25-28.961c0-38.598,31.402-70,70-70 c5.523,0,10-4.478,10-10s-4.477-10-10-10c-49.626,0-90,40.374-90,90c0,12.982,2.708,25.514,8.047,37.246 c1.676,3.684,5.308,5.86,9.107,5.86C184.541,205.967,185.948,205.677,187.292,205.065z" fill="#000000"></path><path d="M265.978,127.918c0-4.045-2.437-7.691-6.173-9.239c-3.737-1.545-8.038-0.692-10.898,2.168l-17.9,17.9 c-3.905,3.905-3.905,10.237,0,14.143c3.905,3.904,10.237,3.904,14.143,0l0.829-0.829v25.607h-6.006c-5.523,0-10,4.478-10,10 s4.477,10,10,10h32.013c5.523,0,10-4.478,10-10s-4.477-10-10-10h-6.007v-49.75H265.978z" fill="#000000"></path><path d="M132.524,283.861c-0.683-24.455-13.039-47.422-33.053-61.437c-4.669-3.269-9.657-5.973-14.85-8.11 c0.866-1.241,1.462-2.686,1.694-4.255c3.129-21.188-4.032-42.867-19.158-57.993c-1.675-1.675-3.434-3.246-5.26-4.722 c3.756-0.184,7.158-2.456,8.689-5.993c7.106-16.419,6.782-35.198-0.633-51.304c13.268-10.469,21.159-26.614,21.159-43.541 c0-17.462-8.38-34.11-22.417-44.534c-3.54-2.629-8.384-2.629-11.924,0C42.735,12.397,34.355,29.045,34.355,46.507 c0,3.831,0.426,7.616,1.204,11.311c-4.919-1.908-10.092-3.23-15.422-3.846c-4.384-0.506-8.575,1.916-10.326,5.962 c-7.867,18.177-6.658,39.256,3.233,56.387c3.598,6.232,8.233,11.719,13.609,16.302c-5.768-0.653-11.646-0.576-17.488,0.286 c-4.362,0.644-7.788,4.069-8.432,8.432c-3.13,21.188,4.032,42.867,19.158,57.994c4.631,4.631,9.883,8.504,15.54,11.575 c-1.676,0.434-3.343,0.919-4.996,1.469c-4.184,1.392-6.962,5.359-6.839,9.768c0.683,24.455,13.039,47.422,33.053,61.437 c13.158,9.213,28.816,13.992,44.598,13.992c8.225,0,16.485-1.299,24.438-3.945C129.869,292.237,132.647,288.27,132.524,283.861z M62.733,23.595c5.393,6.329,8.378,14.349,8.378,22.912s-2.985,16.583-8.378,22.912c-5.393-6.329-8.378-14.349-8.378-22.912 S57.34,29.924,62.733,23.595z M25.667,75.475c10.236,3.145,18.876,9.98,24.365,19.49l0,0c5.49,9.509,7.091,20.409,4.696,30.846 c-10.236-3.145-18.875-9.98-24.366-19.49C24.874,96.812,23.272,85.911,25.667,75.475z M19.992,152.168 c12.357,0.185,24.083,5.102,33.023,14.041c8.94,8.94,13.857,20.664,14.041,33.022c-12.358-0.183-24.083-5.1-33.023-14.04 S20.175,164.526,19.992,152.168z M68.121,267.199c-12.918-9.046-21.333-22.547-23.8-37.821c15.197-2.903,30.762,0.386,43.679,9.43 c12.918,9.046,21.333,22.547,23.8,37.821C96.602,279.532,81.038,276.244,68.121,267.199z" fill="#000000"></path><path d="M511.268,141.34c-0.644-4.362-4.07-7.788-8.432-8.432c-5.842-0.863-11.72-0.939-17.488-0.286 c5.376-4.583,10.011-10.07,13.609-16.302c9.891-17.131,11.1-38.21,3.233-56.387c-1.751-4.047-5.947-6.478-10.326-5.962 c-5.33,0.616-10.503,1.938-15.422,3.846c0.778-3.695,1.204-7.48,1.204-11.311c0-17.462-8.38-34.11-22.417-44.534 c-3.54-2.629-8.384-2.629-11.924,0c-14.037,10.424-22.417,27.072-22.417,44.534c0,16.927,7.891,33.071,21.159,43.541 c-7.415,16.106-7.739,34.885-0.633,51.304c1.531,3.537,4.932,5.81,8.689,5.993c-1.826,1.476-3.585,3.047-5.26,4.722 c-15.125,15.126-22.287,36.806-19.158,57.993c0.232,1.569,0.828,3.014,1.694,4.255c-5.193,2.137-10.18,4.841-14.849,8.11 c-20.015,14.015-32.371,36.981-33.053,61.437c-0.123,4.408,2.655,8.376,6.839,9.768c7.954,2.646,16.212,3.945,24.438,3.945 c15.78,0,31.441-4.78,44.598-13.992c20.015-14.015,32.371-36.981,33.053-61.437c0.123-4.408-2.655-8.376-6.839-9.768 c-1.653-0.55-3.32-1.035-4.996-1.469c5.658-3.071,10.91-6.944,15.541-11.575C507.236,184.207,514.397,162.527,511.268,141.34z M481.636,106.32c-5.49,9.51-14.129,16.346-24.366,19.49c-2.395-10.437-0.794-21.337,4.696-30.846l0,0 c5.489-9.51,14.129-16.346,24.365-19.49C488.728,85.911,487.126,96.812,481.636,106.32z M449.267,23.595 c5.393,6.329,8.378,14.349,8.378,22.912s-2.985,16.583-8.378,22.912c-5.393-6.329-8.378-14.349-8.378-22.912 S443.874,29.924,449.267,23.595z M443.879,267.199c-12.919,9.045-28.48,12.333-43.679,9.43c2.467-15.274,10.882-28.775,23.8-37.821 c12.919-9.045,28.482-12.333,43.679-9.43C465.212,244.652,456.798,258.153,443.879,267.199z M477.968,185.191 c-8.941,8.941-20.664,13.857-33.023,14.04c0.183-12.358,5.1-24.082,14.041-33.022c8.94-8.94,20.665-13.857,33.023-14.041 C491.825,164.526,486.908,176.251,477.968,185.191z" fill="#000000"></path></svg>