<!-- icon666.com - MILLIONS vector ICONS FREE --><svg version="1.1" id="Capa_1" xmlns="http://www.w3.org/2000/svg" xmlns:xlink="http://www.w3.org/1999/xlink" x="0px" y="0px" viewBox="0 0 398.8 398.8" style="enable-background:new 0 0 398.8 398.8;" xml:space="preserve"><circle style="fill: rgb(173, 0, 0);" cx="199.4" cy="257.8" r="136.2" fill="#FFFFFF"></circle><g><path style="fill: rgb(200, 0, 0);" d="M199.4,121.6c-3.3,0-6.5,0.1-9.7,0.3c70.7,5,126.5,63.9,126.5,135.9s-55.8,130.9-126.5,135.9 c3.2,0.2,6.5,0.3,9.7,0.3c75.2,0,136.2-61,136.2-136.2C335.6,182.5,274.6,121.6,199.4,121.6z" fill="#E6E7E8"></path><path style="fill: rgb(200, 0, 0);" d="M199.4,394c3.3,0,6.5-0.1,9.7-0.3c-70.7-5-126.5-63.9-126.5-135.9s55.8-130.9,126.5-135.9 c-3.2-0.2-6.5-0.3-9.7-0.3c-75.2,0-136.2,61-136.2,136.2S124.2,394,199.4,394z" fill="#E6E7E8"></path></g><path style="fill: rgb(1, 0, 0);" d="M199.4,398.8c-77.8,0-141.1-63.3-141.1-141.1s63.3-141.1,141.1-141.1s141.1,63.3,141.1,141.1 C340.5,335.6,277.2,398.8,199.4,398.8z M199.4,126.4c-72.4,0-131.3,58.9-131.3,131.3S127,389,199.4,389s131.3-58.9,131.3-131.3 C330.7,185.4,271.8,126.4,199.4,126.4z" fill="#402943"></path><circle style="fill: rgb(173, 0, 0);" cx="199.4" cy="257.8" r="97.3" fill="#FFFFFF"></circle><path id="SVGCleanerId_0" style="fill: rgb(1, 0, 0);" d="M199.4,359.9c-56.3,0-102.2-45.8-102.2-102.2s45.9-102.1,102.2-102.1 s102.2,45.8,102.2,102.2S255.7,359.9,199.4,359.9z M199.4,165.3c-51,0-92.4,41.5-92.4,92.4s41.5,92.4,92.4,92.4 c51,0,92.4-41.5,92.4-92.4S250.4,165.3,199.4,165.3z" fill="#402943"></path><circle style="fill: rgb(40, 36, 36);" cx="199.4" cy="257.8" r="97.3" fill="#59C3F0"></circle><path style="fill: rgb(10, 9, 9);" d="M199.4,316.2c-47.1,0-86.3-33.4-95.3-77.8c-1.3,6.3-1.9,12.8-1.9,19.5c0,53.7,43.6,97.3,97.3,97.3 s97.3-43.6,97.3-97.3c0-6.7-0.7-13.2-1.9-19.5C285.7,282.7,246.5,316.2,199.4,316.2z" fill="#21A0D6"></path><g><path id="SVGCleanerId_0_1_" style="fill: rgb(1, 0, 0);" d="M199.4,359.9c-56.3,0-102.2-45.8-102.2-102.2s45.9-102.1,102.2-102.1 s102.2,45.8,102.2,102.2S255.7,359.9,199.4,359.9z M199.4,165.3c-51,0-92.4,41.5-92.4,92.4s41.5,92.4,92.4,92.4 c51,0,92.4-41.5,92.4-92.4S250.4,165.3,199.4,165.3z" fill="#402943"></path></g><rect x="160.5" y="218.9" style="fill: rgb(246, 207, 0);" width="77.8" height="19.5" fill="#4AB5AC"></rect><rect x="228.6" y="218.9" style="fill: rgb(184, 165, 0);" width="9.7" height="19.5" fill="#3F9991"></rect><rect x="160.5" y="218.9" style="fill: rgb(255, 241, 179);" width="9.7" height="19.5" fill="#5BDED3"></rect><path style="fill: rgb(1, 0, 0);" d="M238.3,243.2h-77.8c-2.7,0-4.9-2.2-4.9-4.9v-19.5c0-2.7,2.2-4.9,4.9-4.9h77.8c2.7,0,4.9,2.2,4.9,4.9 v19.5C243.2,241,241,243.2,238.3,243.2z M165.3,233.5h68.1v-9.7h-68.1V233.5z" fill="#402943"></path><polygon style="fill: rgb(246, 207, 0);" points="160.5,199.4 238.3,199.4 238.3,121.6 287,121.6 199.4,4.8 111.8,121.6 160.5,121.6 " fill="#4AB5AC"></polygon><rect x="228.6" y="121.6" style="fill: rgb(184, 165, 0);" width="9.7" height="77.8" fill="#3F9991"></rect><g><rect x="160.5" y="121.6" style="fill: rgb(255, 241, 179);" width="9.7" height="77.8" fill="#5BDED3"></rect><polygon style="fill: rgb(255, 241, 179);" points="199.4,4.8 206.7,14.5 126.4,121.6 111.8,121.6 " fill="#5BDED3"></polygon></g><polygon style="fill: rgb(184, 165, 0);" points="199.4,4.8 199.5,24.4 272.4,121.6 287,121.6 " fill="#3F9991"></polygon><g><path style="fill: rgb(1, 0, 0);" d="M238.3,204.3h-77.8c-2.7,0-4.9-2.2-4.9-4.9v-73h-43.8c-1.8,0-3.5-1-4.4-2.7 c-0.8-1.6-0.6-3.6,0.5-5.1L195.5,1.9c0.9-1.2,2.4-1.9,3.9-1.9s3,0.7,3.9,1.9l87.6,116.7c1.1,1.5,1.3,3.4,0.5,5.1 c-0.8,1.6-2.5,2.7-4.4,2.7h-43.8v73C243.2,202.1,241,204.3,238.3,204.3z M165.3,194.5h68.1v-73c0-2.7,2.2-4.9,4.9-4.9h38.9 L199.4,12.9l-77.8,103.8h38.9c2.7,0,4.9,2.2,4.9,4.9v72.9H165.3z" fill="#402943"></path><path style="fill: rgb(1, 0, 0);" d="M179.9,126.4h-19.5c-2.7,0-4.9-2.2-4.9-4.9s2.2-4.9,4.9-4.9h19.5c2.7,0,4.9,2.2,4.9,4.9 C184.8,124.3,182.6,126.4,179.9,126.4z" fill="#402943"></path><path style="fill: rgb(1, 0, 0);" d="M238.3,126.4h-19.5c-2.7,0-4.9-2.2-4.9-4.9s2.2-4.9,4.9-4.9h19.5c2.7,0,4.9,2.2,4.9,4.9 C243.2,124.3,241,126.4,238.3,126.4z" fill="#402943"></path></g><path style="fill: rgb(246, 207, 0);" d="M160.5,297.7v49.2c11.9,5.2,25.1,8.1,38.9,8.1s27-2.9,38.9-8.1v-49.2H160.5z" fill="#4AB5AC"></path><rect x="228.6" y="297.7" style="fill: rgb(184, 165, 0);" width="9.7" height="53.4" fill="#3F9991"></rect><rect x="160.5" y="297.7" style="fill: rgb(255, 241, 179);" width="9.7" height="53.4" fill="#5BDED3"></rect><path style="fill: rgb(1, 0, 0);" d="M199.4,359.9c-14.2,0-27.9-2.9-40.9-8.5c-1.8-0.8-2.9-2.5-2.9-4.5v-49.2c0-2.7,2.2-4.9,4.9-4.9h77.8 c2.7,0,4.9,2.2,4.9,4.9v49.2c0,1.9-1.1,3.7-2.9,4.5C227.3,357.1,213.6,359.9,199.4,359.9z M165.3,343.7c10.8,4.3,22.3,6.5,34.1,6.5 c11.8,0,23.2-2.2,34.1-6.5v-41.1h-68.1v41.1H165.3z" fill="#402943"></path><rect x="160.5" y="257.8" style="fill: rgb(246, 207, 0);" width="77.8" height="20.5" fill="#4AB5AC"></rect><rect x="228.6" y="258.3" style="fill: rgb(184, 165, 0);" width="9.7" height="19.5" fill="#3F9991"></rect><rect x="160.5" y="258.3" style="fill: rgb(255, 241, 179);" width="9.7" height="19.5" fill="#5BDED3"></rect><path style="fill: rgb(1, 0, 0);" d="M238.3,283.1h-77.8c-2.7,0-4.9-2.2-4.9-4.9v-20.5c0-2.7,2.2-4.9,4.9-4.9h77.8c2.7,0,4.9,2.2,4.9,4.9 v20.5C243.2,280.9,241,283.1,238.3,283.1z M165.3,273.4h68.1v-10.7h-68.1V273.4z" fill="#402943"></path></svg>