<?xml version="1.0" standalone="no"?>
<!DOCTYPE svg PUBLIC "-//W3C//DTD SVG 20010904//EN" "http://www.w3.org/TR/2001/REC-SVG-20010904/DTD/svg10.dtd">
<svg xmlns="http://www.w3.org/2000/svg" version="1.0" width="800" height="800" viewBox="0 0 800.000000 800.000000" preserveAspectRatio="xMidYMid meet">

<g transform="translate(0.000000,800.000000) scale(0.100000,-0.100000)" fill="#000000" stroke="none">
<path d="M3882 7028 c54 -243 187 -617 318 -893 194 -412 465 -813 790 -1169 99 -109 119 -126 145 -126 39 0 154 -56 222 -108 29 -21 140 -120 245 -219 277 -258 294 -273 304 -273 5 0 17 21 28 46 10 25 29 58 41 72 l23 27 -65 70 c-471 513 -763 918 -914 1268 l-47 108 -113 102 c-325 292 -641 648 -885 998 -53 76 -98 139 -99 139 -2 0 1 -19 7 -42z"/>
<path d="M6600 6186 c-184 -39 -335 -130 -515 -312 -67 -66 -145 -137 -175 -157 -149 -99 -380 -122 -640 -63 -58 13 -106 23 -108 21 -2 -1 37 -18 86 -38 120 -48 221 -68 387 -74 131 -6 137 -7 102 -19 -21 -8 -77 -18 -125 -24 -48 -6 -107 -14 -132 -17 l-45 -6 35 -8 c19 -5 80 -9 135 -10 189 -2 299 46 490 210 65 56 168 119 223 136 16 5 29 1 42 -10 16 -15 25 -15 75 -4 62 14 75 7 75 -37 0 -23 -17 -34 -52 -34 -11 0 -22 -8 -25 -20 -3 -10 -29 -33 -57 -49 -48 -27 -146 -122 -146 -141 0 -5 -12 -10 -27 -12 -23 -2 -29 -9 -31 -32 -5 -41 -159 -274 -208 -314 -47 -39 -77 -41 -109 -6 -19 21 -27 24 -44 15 -62 -34 -10 -145 113 -238 79 -60 150 -92 222 -101 l59 -7 0 -195 0 -195 25 3 c18 2 34 -6 54 -27 l29 -30 -22 -57 c-12 -31 -20 -58 -18 -60 1 -2 19 1 40 6 70 15 114 -10 124 -73 4 -27 13 -42 29 -49 13 -6 26 -9 27 -7 2 2 16 40 31 84 32 93 135 308 194 409 l42 70 -25 30 c-39 49 -65 102 -71 150 -6 43 -5 45 20 52 100 25 235 -71 253 -178 7 -47 -34 -137 -85 -186 -32 -31 -34 -36 -30 -83 3 -27 8 -52 11 -55 7 -8 70 62 130 145 62 84 110 170 138 246 12 33 37 76 55 95 18 19 37 47 43 63 l11 27 -50 0 c-28 0 -50 3 -50 6 0 3 7 34 16 68 11 43 15 86 11 146 -5 92 -23 150 -70 220 -22 34 -24 40 -8 26 34 -31 81 -136 93 -209 7 -41 16 -67 23 -67 14 0 25 22 25 50 0 12 14 24 44 35 63 24 79 18 92 -35 9 -40 14 -45 42 -48 42 -4 42 11 1 132 -40 122 -96 212 -193 315 -59 63 -69 76 -36 50 113 -91 234 -279 275 -431 l18 -68 56 0 c88 0 162 -39 269 -142 l52 -51 0 68 c0 94 -34 252 -81 370 -134 342 -435 637 -734 720 -82 23 -319 29 -405 11z m195 -361 c22 -7 35 -13 28 -14 -7 -1 -21 -21 -32 -46 -14 -31 -26 -45 -40 -45 -39 0 -51 11 -51 47 0 19 -5 43 -10 54 -10 17 -7 19 27 18 21 0 56 -6 78 -14z m-376 -214 c-59 -59 -54 -106 20 -185 l36 -39 -46 31 c-25 17 -68 51 -95 75 l-49 45 30 32 c25 27 115 80 136 80 4 0 -11 -17 -32 -39z m812 -96 c35 -60 36 -69 8 -54 -17 9 -31 8 -60 -1 -75 -25 -98 11 -45 70 20 22 36 45 36 51 0 20 31 -13 61 -66z m-884 -371 c-3 -3 -12 -4 -19 -1 -8 3 -5 6 6 6 11 1 17 -2 13 -5z m169 -34 c180 -37 352 -60 455 -60 51 0 78 -4 74 -10 -9 -14 -58 -13 -215 5 -137 16 -405 66 -450 84 -41 16 -15 12 136 -19z"/>
<path d="M3934 5329 c-33 -5 -143 -29 -243 -54 -100 -25 -192 -45 -204 -45 -16 -1 -10 -7 24 -25 25 -13 51 -31 59 -40 11 -13 6 -12 -21 4 -86 51 -206 62 -401 36 -204 -27 -330 -68 -364 -121 -10 -14 -34 -34 -54 -44 -50 -26 -90 -75 -90 -110 0 -60 57 -182 138 -295 40 -56 19 -46 -46 24 -37 39 -42 42 -37 21 17 -65 193 -370 214 -370 4 0 23 16 42 36 92 97 291 246 427 319 87 47 65 81 -82 126 -151 47 -180 58 -212 85 l-29 24 37 -15 c20 -8 87 -28 148 -45 62 -17 125 -37 141 -45 l29 -16 0 64 c0 76 35 155 83 189 28 19 30 19 16 2 -69 -81 -72 -186 -9 -258 l30 -33 92 35 c517 194 1130 145 1596 -127 39 -23 73 -41 76 -41 9 0 7 76 -3 103 -11 29 -91 66 -162 74 -45 5 -54 11 -122 82 -40 42 -119 134 -176 204 l-104 127 -51 -6 c-126 -14 -254 -71 -384 -168 -40 -31 -68 -47 -63 -38 19 36 120 121 179 151 34 17 62 35 62 39 0 12 -103 84 -157 109 -103 48 -236 62 -379 42z"/>
<path d="M5507 5018 c136 -178 281 -349 425 -502 l103 -108 70 14 c60 12 70 17 67 34 -2 10 -6 94 -9 185 l-5 166 -54 6 c-72 7 -139 45 -245 139 -80 71 -90 77 -113 68 -14 -5 -26 -11 -26 -13 0 -2 18 -42 39 -88 21 -46 42 -100 45 -119 6 -29 0 -23 -31 35 -52 95 -164 207 -280 278 -51 31 -95 57 -98 57 -2 0 48 -69 112 -152z"/>
<path d="M4118 4829 c-194 -19 -437 -86 -614 -168 -377 -177 -695 -495 -875 -876 -201 -426 -231 -903 -83 -1353 184 -561 619 -992 1189 -1175 809 -260 1697 82 2131 820 195 330 284 738 243 1111 -62 574 -387 1088 -875 1382 -336 203 -735 296 -1116 259z m496 -128 c717 -145 1254 -698 1377 -1418 18 -112 21 -153 16 -328 -7 -283 -48 -454 -163 -695 -169 -353 -439 -627 -789 -803 -663 -332 -1462 -202 -1985 322 -153 153 -238 272 -329 456 -122 246 -169 435 -178 707 -9 270 25 469 118 703 88 221 215 412 389 585 261 260 587 424 965 485 136 22 437 14 579 -14z"/>
<path d="M4142 4699 c-747 -64 -1359 -605 -1522 -1344 -117 -535 49 -1119 432 -1520 152 -159 285 -258 476 -354 646 -324 1428 -200 1945 307 153 150 256 294 346 483 193 404 220 838 80 1269 -42 131 -146 336 -227 450 -83 117 -259 297 -370 378 -333 245 -757 366 -1160 331z m378 -54 c616 -88 1128 -511 1334 -1102 67 -193 81 -289 81 -543 0 -196 -3 -238 -23 -327 -103 -471 -379 -855 -789 -1101 -169 -101 -399 -181 -608 -213 -103 -15 -357 -15 -460 0 -634 97 -1141 522 -1346 1129 -60 177 -74 276 -74 517 1 190 4 234 24 325 151 699 685 1205 1386 1314 120 19 346 19 475 1z"/>
<path d="M4030 4460 c-534 -95 -976 -474 -1145 -983 -60 -180 -70 -249 -70 -472 0 -223 10 -292 70 -471 163 -491 564 -853 1077 -974 579 -136 1213 115 1546 614 310 463 341 1032 83 1523 -219 416 -634 706 -1106 773 -112 16 -337 11 -455 -10z m-318 -210 c-128 -68 -211 -128 -315 -229 -196 -189 -312 -392 -383 -666 -20 -77 -27 -134 -31 -247 l-6 -148 199 69 c682 235 1325 453 1328 450 1 -2 143 -350 316 -774 172 -423 315 -772 317 -774 1 -2 22 11 45 29 23 19 38 28 34 21 -13 -20 -161 -127 -239 -173 -291 -170 -673 -226 -1002 -148 -509 120 -902 510 -1031 1024 -36 139 -45 396 -19 548 59 362 274 703 574 910 73 50 275 158 296 158 6 0 -32 -23 -83 -50z"/>
<path d="M4282 3177 c-61 -28 -111 -51 -109 -53 1 -1 42 7 90 18 50 11 93 16 97 12 5 -5 120 -279 256 -609 135 -330 252 -615 260 -634 10 -25 17 -32 25 -24 8 8 -61 196 -246 675 -142 364 -258 664 -259 664 0 1 -52 -21 -114 -49z"/>
<path d="M3690 2900 c-349 -120 -641 -222 -648 -227 -11 -7 -10 -20 8 -73 155 -462 557 -810 1047 -906 122 -24 367 -24 488 0 89 17 258 68 283 85 11 6 -44 150 -253 662 -147 360 -269 660 -272 667 -3 6 -8 12 -12 11 -3 0 -292 -99 -641 -219z"/>
<path d="M3426 2894 l-349 -105 -22 21 c-12 11 -24 20 -27 20 -5 0 9 -90 15 -96 3 -3 739 255 746 262 9 8 -21 0 -363 -102z"/>
<path d="M2620 4501 c-8 -33 -11 -87 -8 -142 l5 -89 -271 0 c-477 0 -847 -26 -1091 -75 -66 -13 -208 -49 -315 -80 -227 -65 -744 -235 -737 -242 3 -2 65 9 139 26 289 66 621 111 978 132 210 13 858 6 898 -8 l23 -9 -33 -41 c-50 -63 -122 -115 -243 -176 l-110 -56 66 0 c110 -1 388 39 580 85 101 24 107 27 122 59 30 63 126 210 185 284 l59 74 -94 126 c-51 69 -104 139 -117 156 l-23 30 -13 -54z"/>
<path d="M5507 4495 c-6 -34 -2 -39 90 -128 107 -103 190 -203 271 -325 38 -56 58 -79 63 -70 5 8 -2 24 -20 43 -44 46 -53 72 -49 135 l3 57 -150 138 c-82 76 -162 149 -176 162 l-26 24 -6 -36z"/>
<path d="M6745 4460 c-13 -14 -26 -18 -49 -14 -25 4 -28 3 -13 -6 9 -6 17 -18 17 -26 0 -26 -81 -126 -112 -138 -21 -8 -31 -20 -39 -51 -6 -22 -12 -47 -15 -56 -8 -30 106 -149 143 -149 9 0 13 17 13 60 0 86 41 266 87 387 8 20 -11 16 -32 -7z"/>
<path d="M6120 4384 c-146 -47 -148 -48 -187 -132 -66 -146 -63 -156 103 -294 69 -56 130 -103 137 -103 28 0 4 59 -67 160 l-75 108 31 38 c21 26 49 45 92 62 56 22 63 28 88 78 14 30 25 55 23 57 -5 5 -162 -47 -197 -64 -15 -8 -35 -27 -43 -42 -15 -26 -16 -26 -9 -2 10 41 34 56 139 90 55 18 104 35 108 37 9 5 -21 44 -32 42 -3 -1 -53 -16 -111 -35z"/>
<path d="M6756 4256 c-22 -140 -22 -309 0 -327 19 -16 49 -74 58 -114 6 -22 22 -39 62 -65 43 -27 57 -43 66 -73 16 -52 57 -84 197 -152 119 -59 162 -90 187 -137 22 -43 16 -47 -9 -6 -31 51 -65 75 -148 103 -39 14 -92 36 -116 50 -25 14 -47 25 -49 25 -2 0 -4 -12 -4 -28 0 -36 -16 -89 -35 -119 -25 -37 -29 -20 -6 18 36 59 24 146 -27 192 -12 11 -18 26 -14 42 7 38 -27 32 -69 -11 -34 -36 -78 -64 -99 -64 -13 0 27 57 79 114 36 38 36 38 10 34 -18 -3 -38 4 -65 24 -57 42 -92 38 -143 -17 -22 -24 -41 -49 -41 -54 0 -11 76 -31 122 -32 l33 -1 -31 -13 c-43 -19 -99 -5 -210 56 -50 27 -97 49 -103 49 -27 0 -6 -33 63 -97 135 -126 216 -168 289 -149 13 3 46 22 73 43 48 37 49 37 30 8 -63 -97 -157 -106 -277 -25 -33 21 -74 39 -99 43 -23 3 -50 13 -61 23 -17 15 -69 27 -69 16 0 -2 25 -48 55 -103 59 -105 87 -132 175 -173 59 -28 53 -36 -7 -11 -20 8 -38 13 -41 11 -2 -3 8 -42 23 -88 63 -191 122 -281 217 -329 33 -17 202 -79 214 -79 7 0 -21 68 -38 93 -11 15 -15 27 -9 27 12 0 96 -102 116 -140 24 -47 136 -77 220 -60 57 12 80 31 114 95 12 22 33 56 47 75 23 31 25 42 21 102 -3 47 -14 86 -36 135 -25 52 -35 90 -42 162 -17 181 -82 347 -178 453 -45 51 -116 108 -133 108 -4 0 -8 -19 -8 -42 0 -79 -17 -73 -24 9 -15 178 -72 337 -152 423 -41 43 -90 80 -107 80 -3 0 -12 -47 -21 -104z"/>
<path d="M6250 4241 c-30 -9 -65 -23 -76 -29 -21 -11 -84 -111 -84 -133 0 -6 25 -49 55 -95 54 -83 67 -128 45 -150 -7 -7 -2 -25 16 -58 20 -37 30 -45 45 -41 13 5 19 1 19 -10 0 -28 55 -75 88 -75 20 0 40 -10 60 -30 19 -19 41 -30 58 -30 26 0 24 3 -39 69 -70 72 -75 82 -54 99 8 7 35 -1 91 -25 l80 -35 51 57 51 58 46 -6 c25 -4 52 -8 60 -9 33 -7 -6 106 -41 117 -11 3 -36 28 -55 55 -27 37 -45 52 -75 60 -31 8 -43 18 -58 48 -13 26 -31 43 -64 59 -37 18 -48 28 -53 54 -14 71 -60 84 -166 50z"/>
<path d="M5966 3939 c-48 -57 -23 -134 57 -176 17 -8 54 -38 83 -65 41 -39 57 -48 74 -43 35 11 43 50 21 99 -18 43 -178 216 -198 216 -6 0 -23 -14 -37 -31z"/>
<path d="M1881 3939 c-83 -14 -241 -70 -391 -139 -259 -118 -383 -171 -495 -210 -124 -42 -304 -85 -405 -96 -36 -4 -69 -9 -75 -12 -16 -10 234 -50 355 -58 102 -6 311 6 404 23 25 4 19 -2 -32 -33 -84 -53 -152 -113 -205 -182 -42 -55 -97 -142 -97 -155 0 -3 43 20 96 50 193 111 375 178 559 208 95 16 323 19 413 6 l53 -8 152 116 c210 160 377 327 377 378 0 9 -11 8 -42 -3 -212 -76 -733 -163 -908 -152 l-55 3 90 58 c86 56 288 159 368 188 20 7 37 17 37 21 0 10 -130 8 -199 -3z"/>
<path d="M6054 3685 c49 -114 104 -361 121 -537 6 -66 7 -68 28 -56 12 6 52 41 88 77 64 64 129 172 129 213 0 10 -24 67 -54 126 -39 77 -61 111 -80 120 -14 6 -26 16 -26 22 0 5 -4 10 -10 10 -5 0 -10 -6 -10 -14 0 -19 -38 -46 -65 -46 -11 0 -25 8 -32 18 -6 11 -31 34 -54 53 -33 26 -41 29 -35 14z"/>
<path d="M2377 3401 c-43 -37 -103 -83 -134 -102 l-57 -34 -146 -2 c-194 -2 -377 -37 -478 -91 l-33 -18 141 -18 c272 -33 508 -109 663 -212 l78 -53 -6 62 c-9 80 10 317 35 437 11 52 18 95 17 96 -1 1 -37 -28 -80 -65z"/>
<path d="M6110 2545 c0 -8 -18 -69 -40 -135 -48 -146 -130 -315 -215 -443 l-62 -95 75 -11 c96 -15 226 -59 298 -102 58 -35 150 -116 141 -125 -3 -3 -31 -1 -63 5 -73 14 -220 14 -304 0 -85 -13 -203 -53 -260 -87 l-45 -27 205 -6 c302 -9 484 -48 612 -131 l60 -39 74 21 c283 77 319 201 131 441 -7 10 -45 23 -94 32 -45 9 -101 25 -125 36 -24 12 -32 19 -18 15 14 -3 59 -8 101 -11 l76 -5 12 32 c6 18 11 45 11 60 0 49 -58 147 -134 222 -68 69 -418 368 -430 368 -3 0 -6 -7 -6 -15z"/>
</g>
</svg>