<?xml version="1.0" encoding="utf-8"?>
<!-- Generator: Adobe Illustrator 26.0.0, SVG Export Plug-In . SVG Version: 6.00 Build 0)  -->
<svg version="1.1" id="Capa_1" xmlns="http://www.w3.org/2000/svg" xmlns:xlink="http://www.w3.org/1999/xlink" x="0px" y="0px"
	 viewBox="0 0 800 800" style="enable-background:new 0 0 800 800;" xml:space="preserve">
<style type="text/css">
	.st0{fill:#F6CF00;}
</style>
<g transform="translate(0.000000,800.000000) scale(0.100000,-0.100000)">
	<path class="st0" d="M3882,7028c54-243,187-617,318-893c194-412,465-813,790-1169c99-109,119-126,145-126c39,0,154-56,222-108
		c29-21,140-120,245-219c277-258,294-273,304-273c5,0,17,21,28,46c10,25,29,58,41,72l23,27l-65,70c-471,513-763,918-914,1268
		l-47,108l-113,102c-325,292-641,648-885,998c-53,76-98,139-99,139C3873,7070,3876,7051,3882,7028z"/>
	<path class="st0" d="M6600,6186c-184-39-335-130-515-312c-67-66-145-137-175-157c-149-99-380-122-640-63c-58,13-106,23-108,21
		c-2-1,37-18,86-38c120-48,221-68,387-74c131-6,137-7,102-19c-21-8-77-18-125-24s-107-14-132-17l-45-6l35-8c19-5,80-9,135-10
		c189-2,299,46,490,210c65,56,168,119,223,136c16,5,29,1,42-10c16-15,25-15,75-4c62,14,75,7,75-37c0-23-17-34-52-34
		c-11,0-22-8-25-20c-3-10-29-33-57-49c-48-27-146-122-146-141c0-5-12-10-27-12c-23-2-29-9-31-32c-5-41-159-274-208-314
		c-47-39-77-41-109-6c-19,21-27,24-44,15c-62-34-10-145,113-238c79-60,150-92,222-101l59-7v-195v-195l25,3c18,2,34-6,54-27l29-30
		l-22-57c-12-31-20-58-18-60c1-2,19,1,40,6c70,15,114-10,124-73c4-27,13-42,29-49c13-6,26-9,27-7c2,2,16,40,31,84
		c32,93,135,308,194,409l42,70l-25,30c-39,49-65,102-71,150c-6,43-5,45,20,52c100,25,235-71,253-178c7-47-34-137-85-186
		c-32-31-34-36-30-83c3-27,8-52,11-55c7-8,70,62,130,145c62,84,110,170,138,246c12,33,37,76,55,95s37,47,43,63l11,27h-50
		c-28,0-50,3-50,6s7,34,16,68c11,43,15,86,11,146c-5,92-23,150-70,220c-22,34-24,40-8,26c34-31,81-136,93-209c7-41,16-67,23-67
		c14,0,25,22,25,50c0,12,14,24,44,35c63,24,79,18,92-35c9-40,14-45,42-48c42-4,42,11,1,132c-40,122-96,212-193,315
		c-59,63-69,76-36,50c113-91,234-279,275-431l18-68h56c88,0,162-39,269-142l52-51v68c0,94-34,252-81,370c-134,342-435,637-734,720
		C6923,6198,6686,6204,6600,6186z M6795,5825c22-7,35-13,28-14s-21-21-32-46c-14-31-26-45-40-45c-39,0-51,11-51,47c0,19-5,43-10,54
		c-10,17-7,19,27,18C6738,5839,6773,5833,6795,5825z M6419,5611c-59-59-54-106,20-185l36-39l-46,31c-25,17-68,51-95,75l-49,45l30,32
		c25,27,115,80,136,80C6455,5650,6440,5633,6419,5611z M7231,5515c35-60,36-69,8-54c-17,9-31,8-60-1c-75-25-98,11-45,70
		c20,22,36,45,36,51C7170,5601,7201,5568,7231,5515z M6347,5144c-3-3-12-4-19-1c-8,3-5,6,6,6C6345,5150,6351,5147,6347,5144z
		 M6516,5110c180-37,352-60,455-60c51,0,78-4,74-10c-9-14-58-13-215,5c-137,16-405,66-450,84C6339,5145,6365,5141,6516,5110z"/>
	<path class="st0" d="M3934,5329c-33-5-143-29-243-54s-192-45-204-45c-16-1-10-7,24-25c25-13,51-31,59-40c11-13,6-12-21,4
		c-86,51-206,62-401,36c-204-27-330-68-364-121c-10-14-34-34-54-44c-50-26-90-75-90-110c0-60,57-182,138-295c40-56,19-46-46,24
		c-37,39-42,42-37,21c17-65,193-370,214-370c4,0,23,16,42,36c92,97,291,246,427,319c87,47,65,81-82,126c-151,47-180,58-212,85
		l-29,24l37-15c20-8,87-28,148-45c62-17,125-37,141-45l29-16v64c0,76,35,155,83,189c28,19,30,19,16,2c-69-81-72-186-9-258l30-33
		l92,35c517,194,1130,145,1596-127c39-23,73-41,76-41c9,0,7,76-3,103c-11,29-91,66-162,74c-45,5-54,11-122,82
		c-40,42-119,134-176,204l-104,127l-51-6c-126-14-254-71-384-168c-40-31-68-47-63-38c19,36,120,121,179,151c34,17,62,35,62,39
		c0,12-103,84-157,109C4210,5335,4077,5349,3934,5329z"/>
	<path class="st0" d="M5507,5018c136-178,281-349,425-502l103-108l70,14c60,12,70,17,67,34c-2,10-6,94-9,185l-5,166l-54,6
		c-72,7-139,45-245,139c-80,71-90,77-113,68c-14-5-26-11-26-13s18-42,39-88s42-100,45-119c6-29,0-23-31,35c-52,95-164,207-280,278
		c-51,31-95,57-98,57C5393,5170,5443,5101,5507,5018z"/>
	<path class="st0" d="M4118,4829c-194-19-437-86-614-168c-377-177-695-495-875-876c-201-426-231-903-83-1353
		c184-561,619-992,1189-1175c809-260,1697,82,2131,820c195,330,284,738,243,1111c-62,574-387,1088-875,1382
		C4898,4773,4499,4866,4118,4829z M4614,4701c717-145,1254-698,1377-1418c18-112,21-153,16-328c-7-283-48-454-163-695
		c-169-353-439-627-789-803c-663-332-1462-202-1985,322c-153,153-238,272-329,456c-122,246-169,435-178,707c-9,270,25,469,118,703
		c88,221,215,412,389,585c261,260,587,424,965,485C4171,4737,4472,4729,4614,4701z"/>
	<path class="st0" d="M4142,4699c-747-64-1359-605-1522-1344c-117-535,49-1119,432-1520c152-159,285-258,476-354
		c646-324,1428-200,1945,307c153,150,256,294,346,483c193,404,220,838,80,1269c-42,131-146,336-227,450c-83,117-259,297-370,378
		C4969,4613,4545,4734,4142,4699z M4520,4645c616-88,1128-511,1334-1102c67-193,81-289,81-543c0-196-3-238-23-327
		c-103-471-379-855-789-1101c-169-101-399-181-608-213c-103-15-357-15-460,0c-634,97-1141,522-1346,1129c-60,177-74,276-74,517
		c1,190,4,234,24,325c151,699,685,1205,1386,1314C4165,4663,4391,4663,4520,4645z"/>
	<path class="st0" d="M4030,4460c-534-95-976-474-1145-983c-60-180-70-249-70-472s10-292,70-471c163-491,564-853,1077-974
		c579-136,1213,115,1546,614c310,463,341,1032,83,1523c-219,416-634,706-1106,773C4373,4486,4148,4481,4030,4460z M3712,4250
		c-128-68-211-128-315-229c-196-189-312-392-383-666c-20-77-27-134-31-247l-6-148l199,69c682,235,1325,453,1328,450
		c1-2,143-350,316-774c172-423,315-772,317-774c1-2,22,11,45,29c23,19,38,28,34,21c-13-20-161-127-239-173
		c-291-170-673-226-1002-148c-509,120-902,510-1031,1024c-36,139-45,396-19,548c59,362,274,703,574,910c73,50,275,158,296,158
		C3801,4300,3763,4277,3712,4250z"/>
	<path class="st0" d="M4282,3177c-61-28-111-51-109-53c1-1,42,7,90,18c50,11,93,16,97,12c5-5,120-279,256-609
		c135-330,252-615,260-634c10-25,17-32,25-24s-61,196-246,675c-142,364-258,664-259,664C4396,3227,4344,3205,4282,3177z"/>
	<path class="st0" d="M3690,2900c-349-120-641-222-648-227c-11-7-10-20,8-73c155-462,557-810,1047-906c122-24,367-24,488,0
		c89,17,258,68,283,85c11,6-44,150-253,662c-147,360-269,660-272,667c-3,6-8,12-12,11C4328,3119,4039,3020,3690,2900z"/>
	<path class="st0" d="M3426,2894l-349-105l-22,21c-12,11-24,20-27,20c-5,0,9-90,15-96c3-3,739,255,746,262
		C3798,3004,3768,2996,3426,2894z"/>
	<path class="st0" d="M2620,4501c-8-33-11-87-8-142l5-89h-271c-477,0-847-26-1091-75c-66-13-208-49-315-80c-227-65-744-235-737-242
		c3-2,65,9,139,26c289,66,621,111,978,132c210,13,858,6,898-8l23-9l-33-41c-50-63-122-115-243-176l-110-56h66c110-1,388,39,580,85
		c101,24,107,27,122,59c30,63,126,210,185,284l59,74l-94,126c-51,69-104,139-117,156l-23,30L2620,4501z"/>
	<path class="st0" d="M5507,4495c-6-34-2-39,90-128c107-103,190-203,271-325c38-56,58-79,63-70c5,8-2,24-20,43c-44,46-53,72-49,135
		l3,57l-150,138c-82,76-162,149-176,162l-26,24L5507,4495z"/>
	<path class="st0" d="M6745,4460c-13-14-26-18-49-14c-25,4-28,3-13-6c9-6,17-18,17-26c0-26-81-126-112-138c-21-8-31-20-39-51
		c-6-22-12-47-15-56c-8-30,106-149,143-149c9,0,13,17,13,60c0,86,41,266,87,387C6785,4487,6766,4483,6745,4460z"/>
	<path class="st0" d="M6120,4384c-146-47-148-48-187-132c-66-146-63-156,103-294c69-56,130-103,137-103c28,0,4,59-67,160l-75,108
		l31,38c21,26,49,45,92,62c56,22,63,28,88,78c14,30,25,55,23,57c-5,5-162-47-197-64c-15-8-35-27-43-42c-15-26-16-26-9-2
		c10,41,34,56,139,90c55,18,104,35,108,37c9,5-21,44-32,42C6228,4418,6178,4403,6120,4384z"/>
	<path class="st0" d="M6756,4256c-22-140-22-309,0-327c19-16,49-74,58-114c6-22,22-39,62-65c43-27,57-43,66-73c16-52,57-84,197-152
		c119-59,162-90,187-137c22-43,16-47-9-6c-31,51-65,75-148,103c-39,14-92,36-116,50c-25,14-47,25-49,25s-4-12-4-28
		c0-36-16-89-35-119c-25-37-29-20-6,18c36,59,24,146-27,192c-12,11-18,26-14,42c7,38-27,32-69-11c-34-36-78-64-99-64
		c-13,0,27,57,79,114c36,38,36,38,10,34c-18-3-38,4-65,24c-57,42-92,38-143-17c-22-24-41-49-41-54c0-11,76-31,122-32l33-1l-31-13
		c-43-19-99-5-210,56c-50,27-97,49-103,49c-27,0-6-33,63-97c135-126,216-168,289-149c13,3,46,22,73,43c48,37,49,37,30,8
		c-63-97-157-106-277-25c-33,21-74,39-99,43c-23,3-50,13-61,23c-17,15-69,27-69,16c0-2,25-48,55-103c59-105,87-132,175-173
		c59-28,53-36-7-11c-20,8-38,13-41,11c-2-3,8-42,23-88c63-191,122-281,217-329c33-17,202-79,214-79c7,0-21,68-38,93
		c-11,15-15,27-9,27c12,0,96-102,116-140c24-47,136-77,220-60c57,12,80,31,114,95c12,22,33,56,47,75c23,31,25,42,21,102
		c-3,47-14,86-36,135c-25,52-35,90-42,162c-17,181-82,347-178,453c-45,51-116,108-133,108c-4,0-8-19-8-42c0-79-17-73-24,9
		c-15,178-72,337-152,423c-41,43-90,80-107,80C6774,4360,6765,4313,6756,4256z"/>
	<path class="st0" d="M6250,4241c-30-9-65-23-76-29c-21-11-84-111-84-133c0-6,25-49,55-95c54-83,67-128,45-150c-7-7-2-25,16-58
		c20-37,30-45,45-41c13,5,19,1,19-10c0-28,55-75,88-75c20,0,40-10,60-30c19-19,41-30,58-30c26,0,24,3-39,69c-70,72-75,82-54,99
		c8,7,35-1,91-25l80-35l51,57l51,58l46-6c25-4,52-8,60-9c33-7-6,106-41,117c-11,3-36,28-55,55c-27,37-45,52-75,60c-31,8-43,18-58,48
		c-13,26-31,43-64,59c-37,18-48,28-53,54C6402,4262,6356,4275,6250,4241z"/>
	<path class="st0" d="M5966,3939c-48-57-23-134,57-176c17-8,54-38,83-65c41-39,57-48,74-43c35,11,43,50,21,99
		c-18,43-178,216-198,216C5997,3970,5980,3956,5966,3939z"/>
	<path class="st0" d="M1881,3939c-83-14-241-70-391-139c-259-118-383-171-495-210c-124-42-304-85-405-96c-36-4-69-9-75-12
		c-16-10,234-50,355-58c102-6,311,6,404,23c25,4,19-2-32-33c-84-53-152-113-205-182c-42-55-97-142-97-155c0-3,43,20,96,50
		c193,111,375,178,559,208c95,16,323,19,413,6l53-8l152,116c210,160,377,327,377,378c0,9-11,8-42-3c-212-76-733-163-908-152l-55,3
		l90,58c86,56,288,159,368,188c20,7,37,17,37,21C2080,3952,1950,3950,1881,3939z"/>
	<path class="st0" d="M6054,3685c49-114,104-361,121-537c6-66,7-68,28-56c12,6,52,41,88,77c64,64,129,172,129,213c0,10-24,67-54,126
		c-39,77-61,111-80,120c-14,6-26,16-26,22c0,5-4,10-10,10c-5,0-10-6-10-14c0-19-38-46-65-46c-11,0-25,8-32,18c-6,11-31,34-54,53
		C6056,3697,6048,3700,6054,3685z"/>
	<path class="st0" d="M2377,3401c-43-37-103-83-134-102l-57-34l-146-2c-194-2-377-37-478-91l-33-18l141-18c272-33,508-109,663-212
		l78-53l-6,62c-9,80,10,317,35,437c11,52,18,95,17,96S2420,3438,2377,3401z"/>
	<path class="st0" d="M6110,2545c0-8-18-69-40-135c-48-146-130-315-215-443l-62-95l75-11c96-15,226-59,298-102
		c58-35,150-116,141-125c-3-3-31-1-63,5c-73,14-220,14-304,0c-85-13-203-53-260-87l-45-27l205-6c302-9,484-48,612-131l60-39l74,21
		c283,77,319,201,131,441c-7,10-45,23-94,32c-45,9-101,25-125,36c-24,12-32,19-18,15c14-3,59-8,101-11l76-5l12,32c6,18,11,45,11,60
		c0,49-58,147-134,222c-68,69-418,368-430,368C6113,2560,6110,2553,6110,2545z"/>
</g>
</svg>
