<!-- icon666.com - MILLIONS vector ICONS FREE --><svg xmlns="http://www.w3.org/2000/svg" xmlns:xlink="http://www.w3.org/1999/xlink" version="1.1" id="Layer_1" x="0px" y="0px" viewBox="0 0 511.633 511.633" style="enable-background:new 0 0 511.633 511.633;" xml:space="preserve"><g><path style="fill: rgb(247, 219, 80);" d="M71.79,403.656c25.366,0,46.003-20.637,46.003-46.003s-20.637-46.004-46.003-46.004 s-46.003,20.638-46.003,46.004S46.423,403.656,71.79,403.656z" fill="#09719E"></path><path style="fill: rgb(247, 219, 80);" d="M71.79,403.658C32.205,403.658,0,435.862,0,475.447v29.368h143.579v-29.368 C143.579,435.862,111.375,403.658,71.79,403.658z" fill="#09719E"></path><path style="fill: rgb(247, 219, 80);" d="M255.816,403.656c25.366,0,46.003-20.637,46.003-46.003s-20.637-46.004-46.003-46.004 s-46.003,20.638-46.003,46.004S230.45,403.656,255.816,403.656z" fill="#09719E"></path><path style="fill: rgb(247, 219, 80);" d="M255.816,403.658c-39.585,0-71.79,32.204-71.79,71.789v29.368h143.579v-29.368 C327.606,435.862,295.401,403.658,255.816,403.658z" fill="#09719E"></path><path style="fill: rgb(247, 219, 80);" d="M439.843,403.656c25.366,0,46.003-20.637,46.003-46.003s-20.637-46.004-46.003-46.004 s-46.003,20.638-46.003,46.004S414.477,403.656,439.843,403.656z" fill="#09719E"></path><path style="fill: rgb(247, 219, 80);" d="M439.843,403.658c-39.585,0-71.79,32.204-71.79,71.789v29.368h143.58v-29.368 C511.633,435.862,479.428,403.658,439.843,403.658z" fill="#09719E"></path><polygon style="" points="42.815,6.818 42.815,220.819 92.818,220.819 92.818,279.648 168.208,220.819 220.572,220.819 255.816,278.792 291.061,220.819 343.425,220.819 418.814,279.648 418.814,220.819 468.817,220.819 468.817,6.818 " fill="#EDEDF2"></polygon><polygon style="" points="255.816,6.818 255.816,278.792 291.061,220.819 343.425,220.819 418.814,279.648 418.814,220.819 468.817,220.819 468.817,6.818 " fill="#D4D4D9"></polygon><g><rect x="123.483" y="67.822" style="fill: rgb(5, 173, 17);" width="264.667" height="30" fill="#64C3D2"></rect></g><g><rect x="123.483" y="127.826" style="fill: rgb(5, 173, 17);" width="264.667" height="30" fill="#64C3D2"></rect></g><path style="fill: rgb(246, 207, 0);" d="M439.843,403.656c25.366,0,46.003-20.637,46.003-46.003s-20.637-46.004-46.003-46.004 s-46.003,20.638-46.003,46.004S414.477,403.656,439.843,403.656z" fill="#094970"></path><path style="fill: rgb(246, 207, 0);" d="M439.843,403.658c-39.585,0-71.79,32.204-71.79,71.789v29.368h143.58v-29.368 C511.633,435.862,479.428,403.658,439.843,403.658z" fill="#094970"></path><rect x="255.816" y="67.822" style="fill: rgb(1, 137, 28);" width="132.333" height="30" fill="#439FCA"></rect><rect x="255.816" y="127.826" style="fill: rgb(1, 137, 28);" width="132.333" height="30" fill="#439FCA"></rect><path style="fill: rgb(246, 207, 0);" d="M255.816,311.649v92.007c25.366,0,46.003-20.637,46.003-46.003S281.183,311.649,255.816,311.649z" fill="#094970"></path><path style="fill: rgb(246, 207, 0);" d="M327.606,475.447c0-39.585-32.205-71.789-71.79-71.789v101.157h71.79V475.447z" fill="#094970"></path></g></svg>